<svg  viewBox="0 0 104 104" fill="none" xmlns="http://www.w3.org/2000/svg">
<path fill-rule="evenodd" clip-rule="evenodd" d="M51.4364 0V0.00640948C39.0509 0.0740667 26.9249 0.166477 14.1488 0.43392C3.45772 0.953395 -2.78848 7.8183 1.22523 12.1804C4.19889 16.4923 8.48587 18.2954 12.2857 19.8937C17.5143 22.0929 21.8205 23.9042 20.5128 31.3299C22.129 34.4972 23.743 37.6608 25.3552 40.821L25.3831 40.8756L25.39 40.8892C27.5682 45.1587 29.7431 49.4217 31.9157 53.6785C37.1999 62.7267 41.2963 71.2377 44.7883 78.493L44.7884 78.4931C47.4233 83.9676 49.7141 88.7271 51.9114 92.4629C54.1087 88.7271 56.3995 83.9676 59.0346 78.4931C61.2516 73.887 63.7123 68.7747 66.5658 63.3402C67.355 64.1032 68.3214 64.7999 69.4284 65.3681L80.6907 71.149L74.2172 83.7605C69.3894 93.166 67.4752 101.817 69.9417 103.083C72.4082 104.349 78.3214 97.7508 83.1492 88.3453L97.1653 61.0393C101.993 51.6338 103.907 42.9828 101.441 41.7167C98.9744 40.4507 93.0611 47.049 88.2333 56.4545L85.2895 62.1896L74.0272 56.4087C73.0057 55.8844 71.9651 55.5211 70.9619 55.3138C71.2729 54.7708 71.5881 54.2256 71.9076 53.6785C74.079 49.424 76.2528 45.1632 78.4298 40.8959L78.474 40.8094L78.5738 40.6138C80.1508 37.5226 81.7296 34.428 83.3105 31.3299C82.0028 23.9042 86.309 22.093 91.5377 19.8937C95.3374 18.2955 99.6244 16.4923 102.598 12.1805C106.612 7.81834 100.366 0.953428 89.6746 0.433953C76.8985 0.166509 64.7724 0.07411 52.387 0.0064421V3.26182e-05C52.2823 0.000594611 52.1785 0.00134405 52.0745 0.00209523L51.9114 0.00324551C51.8095 0.00269026 51.7083 0.0019519 51.6069 0.00121173L51.6068 0.0012114L51.4364 0Z" fill="#D9534F"/>
</svg>
